<?xml version="1.0" encoding="UTF-8" standalone="no"?>
<!-- Created with Inkscape (http://www.inkscape.org/) -->

<svg
   width="200mm"
   height="200mm"
   viewBox="0 0 200 200"
   version="1.1"
   id="svg1"
   xmlns:xlink="http://www.w3.org/1999/xlink"
   xmlns="http://www.w3.org/2000/svg"
   xmlns:svg="http://www.w3.org/2000/svg">
  <defs
     id="defs1">
    <linearGradient
       id="linearGradient1">
      <stop
         style="stop-color:#f33d64;stop-opacity:1;"
         offset="0"
         id="stop1" />
      <stop
         style="stop-color:#fd8235;stop-opacity:1;"
         offset="1"
         id="stop2" />
    </linearGradient>
    <linearGradient
       xlink:href="#linearGradient1"
       id="linearGradient2"
       x1="174.76556"
       y1="163.78175"
       x2="54.89278"
       y2="35.184925"
       gradientUnits="userSpaceOnUse"
       gradientTransform="matrix(1.3743737,0,0,1.3743737,-55.272728,-34.181818)" />
  </defs>
  <g
     id="layer1">
    <rect
       style="fill:url(#linearGradient2);stroke-width:0.364209;stroke-dasharray:none"
       id="rect1"
       width="200"
       height="200"
       x="0"
       y="0"
       ry="37.090908" />
    <path
       d="m 24.428748,56.405879 h 12.09407 v 57.160391 q 0,5.09224 1.27306,9.16603 1.27306,3.94649 3.691874,7.00183 2.54612,3.05535 5.983382,4.58302 3.564568,1.52767 8.020278,1.52767 4.201098,0 7.511054,-1.14575 3.309956,-1.27306 5.72877,-3.69188 2.291508,-2.41881 3.81918,-5.09224 1.527672,-2.67342 2.291508,-5.47415 0.254612,-0.63653 0.254612,-1.27306 0.127306,-0.76384 0.254612,-1.52768 0.127306,-0.76383 0.127306,-1.40036 0.127306,-0.76384 0.127306,-1.40037 0,-5.09224 -1.400366,-8.91142 -1.27306,-3.81918 -3.81918,-6.237991 -2.54612,-2.54612 -5.474158,-3.946486 -2.800732,-1.527672 -5.856076,-1.90959 -0.381918,0 -0.763836,0 -0.254612,0 -0.509224,0 -0.127306,0 -0.381918,0 -0.127306,0 -0.254612,-0.127306 -0.254612,0 -0.381918,0 -0.127306,0 -0.254612,0 -1.90959,0 -3.564568,0.254612 -1.654978,0.254612 -3.055344,0.763836 -1.400366,0.509224 -2.800732,1.145754 -1.27306,0.509224 -2.673426,1.145754 0,0 0,0 0,0 0,0 -0.127306,0.127306 -0.127306,0.127306 0,0 0,0 -0.127306,0 -0.127306,0 0,0 0,0 -0.254612,0.127306 -0.509224,0.254612 -0.254612,0.127306 -0.381918,0.127306 -0.254612,0.127306 -0.509224,0.254612 -0.127306,0.127306 -0.381918,0.254612 -0.509224,0.127306 -1.018448,0.381918 -0.381918,0.127306 -0.891142,0.381918 V 87.468543 q 1.400366,-0.63653 2.673426,-1.27306 1.400366,-0.63653 2.800732,-1.145754 1.400366,-0.509224 2.800732,-0.891142 1.400366,-0.381918 2.928038,-0.63653 0.63653,-0.127306 1.27306,-0.127306 0.763836,-0.127306 1.527672,-0.254612 0.381918,0 0.63653,0 0.381918,0 0.763836,-0.127306 0.254612,0 0.63653,0 0.381918,0 0.763836,0 5.983382,0 11.202928,2.036896 5.219546,1.90959 9.802562,5.983382 4.583016,3.946486 6.874524,9.420639 2.418814,5.47416 2.418814,12.34869 0,6.3653 -2.036896,12.22137 -2.036896,5.85608 -6.110688,11.20293 -3.946486,5.34685 -10.057174,7.89297 -5.983382,2.54612 -13.876354,2.54612 -7.892972,0 -13.749048,-2.41881 -5.856076,-2.54612 -9.675256,-7.63836 -3.81918,-5.21955 -5.72877,-11.07562 -1.90959,-5.98339 -1.90959,-12.7306 z M 96.611251,83.522057 H 108.70532 V 122.605 q 0,2.41881 0.50922,4.58301 0.63653,2.0369 1.78229,3.94649 1.14575,1.90959 3.05534,2.80073 1.90959,0.89114 4.58302,0.89114 2.92804,0 5.21954,-0.63653 2.29151,-0.76383 3.81918,-2.1642 1.52768,-1.40036 2.29151,-4.2011 0.76384,-2.80073 0.76384,-7.00183 V 83.522057 h 11.96676 V 122.605 q 0,3.94648 0.89114,6.3653 0.89115,2.41881 2.80074,3.56457 1.78228,1.14575 3.81918,1.78228 2.03689,0.50922 4.20109,0.50922 0,0 0,0 0,0 0.12731,0 0,0 0,0 0,0 0,0 0,0 0,0 0.12731,0 0.25461,0 2.1642,0 3.94649,-0.89114 1.90959,-0.89114 3.30995,-2.67342 1.40037,-1.78229 2.0369,-4.32841 0.76384,-2.67342 0.76384,-6.11069 V 83.522057 h 10.94831 v 42.010983 q 0,0.25461 0,0.38191 0,0.12731 0,0.25462 0,0.1273 0,0.25461 0,0 0,0 0,0.1273 0,0.25461 0,0.12731 0,0.12731 0,0.1273 0,0.25461 0,0 0,0.1273 0,3.43727 -1.14575,6.49261 -1.14576,2.92804 -3.43726,5.47416 -2.29151,2.41881 -4.83763,4.07379 -2.54612,1.65498 -5.34685,2.54612 -0.38192,0.12731 -0.76384,0.12731 -0.25461,0.1273 -0.50922,0.25461 -0.38192,0 -0.76384,0 -0.25461,0.1273 -0.63653,0.25461 -0.63653,0.12731 -1.27306,0.12731 -0.63653,0.1273 -1.27306,0.1273 -3.30996,0 -5.98338,-0.50922 -2.67343,-0.38192 -4.83763,-1.27306 -2.0369,-0.63653 -4.07379,-2.29151 -1.90959,-1.65498 -3.69188,-4.07379 -0.1273,0 -0.25461,0 0,-0.12731 0,-0.25461 -0.1273,-0.12731 -0.25461,-0.12731 0,-0.12731 0,-0.25461 -0.12731,0.1273 -0.25461,0.25461 -0.12731,0.12731 -0.12731,0.25461 -0.1273,0.25461 -0.25461,0.38192 -0.12731,0.12731 -0.25461,0.25461 -0.25461,0.25461 -0.50923,0.63653 -0.25461,0.25461 -0.50922,0.50923 -1.27306,1.27306 -2.92804,2.41881 -1.65498,1.14575 -3.69187,2.0369 -2.0369,1.01844 -4.45571,1.52767 -2.41882,0.50922 -5.09224,0.50922 -4.2011,0 -7.51106,-1.01845 -3.18265,-1.01844 -5.47415,-2.80073 -2.41882,-1.90959 -4.2011,-4.07379 -1.654979,-2.1642 -2.673427,-4.58302 -0.509224,-1.27306 -1.018448,-2.41881 -0.381918,-1.27306 -0.63653,-2.54612 -0.254612,-1.27306 -0.381918,-2.29151 -0.127306,-1.14575 -0.127306,-2.03689 V 83.522057 Z"
       id="text2"
       style="font-weight:100;font-size:127.306px;font-family:Bauhaus;-inkscape-font-specification:'Bauhaus, Thin';fill:#ffbd59;stroke:#ffbd59;stroke-width:1.7;stroke-linecap:round;stroke-linejoin:round"
       aria-label="bw" />
  </g>
</svg>
